<svg id="Layer_1" data-name="Layer 1" xmlns="http://www.w3.org/2000/svg" viewBox="0 0 452.153 80.449"><title>logo-full</title><path d="M4.62,75.484Q0,70.624,0,62.944V35.7a17.51,17.51,0,0,1,4.62-12.48A15.641,15.641,0,0,1,16.56,18.3a17.38,17.38,0,0,1,8.58,2.1,15.509,15.509,0,0,1,5.88,5.58,14.172,14.172,0,0,1,2.1,7.44v.36a1.061,1.061,0,0,1-1.2,1.2h-1.2a1.06,1.06,0,0,1-1.2-1.2v-.36a11.108,11.108,0,0,0-3.66-8.22,12.841,12.841,0,0,0-9.3-3.54,12.154,12.154,0,0,0-9.36,3.9A14.362,14.362,0,0,0,3.6,35.7v27.24a14.355,14.355,0,0,0,3.6,10.14,12.147,12.147,0,0,0,9.36,3.9,12.829,12.829,0,0,0,9.3-3.54,11.1,11.1,0,0,0,3.66-8.22v-.36a1.061,1.061,0,0,1,1.2-1.2h1.2a1.061,1.061,0,0,1,1.2,1.2v.36a14.164,14.164,0,0,1-2.1,7.44,15.472,15.472,0,0,1-5.88,5.58,17.38,17.38,0,0,1-8.58,2.1A15.734,15.734,0,0,1,4.62,75.484Z"/><path d="M160.678,19.264h1.2a1.062,1.062,0,0,1,1.2,1.2v57.72a1.061,1.061,0,0,1-1.2,1.2h-1.2a1.06,1.06,0,0,1-1.2-1.2v-4.8c0-.24-.081-.379-.24-.42s-.281.06-.36.3q-3.721,6.962-12.6,6.96-7.2,0-11.28-4.38t-4.08-13.02V20.464a1.061,1.061,0,0,1,1.2-1.2h1.2a1.062,1.062,0,0,1,1.2,1.2v41.52q0,7.441,3.18,11.16t9.06,3.72a11.229,11.229,0,0,0,9.3-4.32q3.42-4.32,3.42-11.88v-40.2A1.061,1.061,0,0,1,160.678,19.264Z"/><path d="M221.277,23.224q3.96,4.8,3.96,13.32v41.64a1.061,1.061,0,0,1-1.2,1.2h-1.2a1.06,1.06,0,0,1-1.2-1.2V37.024q0-7.2-3.18-11.22t-9.06-4.02a11.394,11.394,0,0,0-9.36,4.32q-3.482,4.32-3.48,11.88v40.2a1.061,1.061,0,0,1-1.2,1.2h-1.2a1.06,1.06,0,0,1-1.2-1.2V20.464a1.061,1.061,0,0,1,1.2-1.2h1.2a1.062,1.062,0,0,1,1.2,1.2v5.76c0,.24.079.36.24.36s.28-.12.36-.36a14.053,14.053,0,0,1,5.34-5.76,14.826,14.826,0,0,1,7.74-2.04Q217.317,18.424,221.277,23.224Z"/><path d="M270.477,22.384h-10.2a.425.425,0,0,0-.48.48v41.4q0,6.6,2.22,9.18t7.021,2.58h1.319a1.062,1.062,0,0,1,1.2,1.2v.96a1.061,1.061,0,0,1-1.2,1.2h-1.8q-6.12,0-9.3-3.18t-3.179-11.7V22.864a.426.426,0,0,0-.481-.48h-4.92a1.059,1.059,0,0,1-1.2-1.2v-.72a1.06,1.06,0,0,1,1.2-1.2h4.92a.425.425,0,0,0,.481-.48V5.344a1.06,1.06,0,0,1,1.2-1.2h1.32a1.061,1.061,0,0,1,1.2,1.2v13.44a.424.424,0,0,0,.48.48h10.2a1.061,1.061,0,0,1,1.2,1.2v.72A1.06,1.06,0,0,1,270.477,22.384Z"/><path d="M297.86,4.68a2.693,2.693,0,0,1-.769-1.988A2.613,2.613,0,0,1,297.86.769,2.689,2.689,0,0,1,299.848,0a2.63,2.63,0,0,1,2.692,2.692,2.686,2.686,0,0,1-.77,1.988,2.61,2.61,0,0,1-1.922.769A2.693,2.693,0,0,1,297.86,4.68Zm.215,73.5V20.464a1.062,1.062,0,0,1,1.2-1.2h1.2a1.062,1.062,0,0,1,1.2,1.2v57.72a1.061,1.061,0,0,1-1.2,1.2h-1.2A1.061,1.061,0,0,1,298.075,78.184Z"/><path d="M387.594,23.644q3.96,5.222,3.96,14.1v40.44a1.061,1.061,0,0,1-1.2,1.2h-1.08a1.059,1.059,0,0,1-1.2-1.2V38.1q0-7.438-3.3-11.88a10.227,10.227,0,0,0-8.58-4.44,10.648,10.648,0,0,0-8.88,4.38q-3.362,4.381-3.36,11.82v40.2a1.061,1.061,0,0,1-1.2,1.2h-1.2a1.06,1.06,0,0,1-1.2-1.2V38.1q0-7.438-3.24-11.88a9.966,9.966,0,0,0-8.4-4.44,10.818,10.818,0,0,0-9,4.32q-3.36,4.32-3.359,11.88v40.2a1.061,1.061,0,0,1-1.2,1.2h-1.2a1.06,1.06,0,0,1-1.2-1.2V20.464a1.061,1.061,0,0,1,1.2-1.2h1.2a1.062,1.062,0,0,1,1.2,1.2v5.4c0,.24.078.381.24.42s.28-.06.36-.3a13.919,13.919,0,0,1,5.28-5.58,14.161,14.161,0,0,1,7.32-1.98,12.631,12.631,0,0,1,8.04,2.64,15.815,15.815,0,0,1,5.039,7.561c.16.479.362.44.6-.121a14.9,14.9,0,0,1,5.46-7.56,14.551,14.551,0,0,1,8.46-2.52A12.478,12.478,0,0,1,387.594,23.644Z"/><path d="M450.953,50.1h-27.84a.425.425,0,0,0-.481.48v12.36a14.36,14.36,0,0,0,3.6,10.14,13.141,13.141,0,0,0,17.4,1.14,13.067,13.067,0,0,0,4.441-7.32,1.342,1.342,0,0,1,1.319-1.08h1.2a1.039,1.039,0,0,1,.9.42,1.271,1.271,0,0,1,.179,1.02,15.463,15.463,0,0,1-5.46,9.48,16.184,16.184,0,0,1-10.62,3.6,15.729,15.729,0,0,1-11.939-4.86q-4.622-4.86-4.621-12.54V35.7a17.506,17.506,0,0,1,4.621-12.48,16.948,16.948,0,0,1,23.88,0,17.519,17.519,0,0,1,4.62,12.48V48.9A1.061,1.061,0,0,1,450.953,50.1Zm-24.721-24.54a14.366,14.366,0,0,0-3.6,10.14V46.5a.424.424,0,0,0,.481.48h24.96a.424.424,0,0,0,.479-.48V35.7a14.366,14.366,0,0,0-3.6-10.14,13.183,13.183,0,0,0-18.721,0Z"/><path d="M82.463,21.449a28,28,0,1,1-28,28,28.031,28.031,0,0,1,28-28m0-3a31,31,0,1,0,31,31,31,31,0,0,0-31-31Z" fill="#f0be77"/><line x1="81.396" y1="48.398" x2="96.245" y2="33.549" fill="none" stroke="#f0be77" stroke-miterlimit="10" stroke-width="3"/><line x1="70.082" y1="34.963" x2="81.396" y2="46.277" fill="none" stroke="#f0be77" stroke-miterlimit="10" stroke-width="3"/></svg>